<svg id="undraw_file_searching_re_3evy" xmlns="http://www.w3.org/2000/svg" width="102" height="95.661" viewBox="0 0 102 95.661">
  <path id="Path_20057" data-name="Path 20057" d="M386.482,211.679l-51.435,13.245a6.8,6.8,0,0,1-8.273-4.885l-15.555-60.406a6.8,6.8,0,0,1,4.885-8.273l47.852-12.322L376.2,144.52l15.164,58.885A6.8,6.8,0,0,1,386.482,211.679Z" transform="translate(-311.004 -139.037)" fill="#f2f2f2"/>
  <path id="Path_20058" data-name="Path 20058" d="M324.135,161.218a4.843,4.843,0,0,0-3.479,5.891l15.555,60.406a4.843,4.843,0,0,0,5.891,3.479l51.435-13.245a4.843,4.843,0,0,0,3.479-5.891l-14.929-57.973-10.764-4.819Z" transform="translate(-318.548 -147.001)" fill="#fff"/>
  <path id="Path_20059" data-name="Path 20059" d="M579.883,145.455l-7.96,2.05a2.263,2.263,0,0,1-2.755-1.627L567.654,140a.141.141,0,0,1,.194-.165l12.058,5.355a.141.141,0,0,1-.022.266Z" transform="translate(-514.815 -139.66)" fill="#f2f2f2"/>
  <path id="Path_20060" data-name="Path 20060" d="M510.946,409.174l-23.417,6.03a1.131,1.131,0,0,1-.564-2.191l23.418-6.03a1.131,1.131,0,1,1,.564,2.191Z" transform="translate(-450.066 -351.794)" fill="#ccc"/>
  <path id="Path_20061" data-name="Path 20061" d="M520.09,421.482l-27.937,7.194a1.131,1.131,0,1,1-.564-2.191l27.937-7.194a1.131,1.131,0,1,1,.564,2.191Z" transform="translate(-453.738 -361.568)" fill="#ccc"/>
  <circle id="Ellipse_44" data-name="Ellipse 44" cx="3.999" cy="3.999" r="3.999" transform="translate(23.907 62.677)" fill="#e6e6e6"/>
  <path id="Path_20062" data-name="Path 20062" d="M432.657,242.688l-31.1,8.006a3.5,3.5,0,0,1-4.262-2.517l-6.518-25.32a3.5,3.5,0,0,1,2.517-4.262l31.1-8.006a3.5,3.5,0,0,1,4.262,2.517l6.518,25.32A3.5,3.5,0,0,1,432.657,242.688Z" transform="translate(-374.267 -195.772)" fill="#fff"/>
  <path id="Path_20063" data-name="Path 20063" d="M432.657,242.688l-31.1,8.006a3.5,3.5,0,0,1-4.262-2.517l-6.518-25.32a3.5,3.5,0,0,1,2.517-4.262l31.1-8.006a3.5,3.5,0,0,1,4.262,2.517l6.518,25.32A3.5,3.5,0,0,1,432.657,242.688ZM393.4,218.994a3.091,3.091,0,0,0-2.221,3.76l6.518,25.32a3.091,3.091,0,0,0,3.76,2.221l31.1-8.006a3.091,3.091,0,0,0,2.221-3.76l-6.518-25.32a3.091,3.091,0,0,0-3.76-2.221Z" transform="translate(-374.267 -195.772)" fill="#e6e6e6"/>
  <path id="Path_411" data-name="Path 411" d="M483.565,248.075l-15.7,4.04a.562.562,0,0,1-.681-.354.541.541,0,0,1,.381-.687l15.978-4.113c.646.327.476,1,.018,1.114Z" transform="translate(-435.015 -224.743)" fill="#f2f2f2"/>
  <path id="Path_412" data-name="Path 412" d="M487.009,261.449l-15.7,4.04a.562.562,0,0,1-.681-.354.542.542,0,0,1,.381-.687l15.978-4.113c.645.327.476,1,.018,1.114Z" transform="translate(-437.75 -235.364)" fill="#f2f2f2"/>
  <path id="Path_413" data-name="Path 413" d="M432.486,270.8l-4.79,1.233a.61.61,0,0,1-.742-.438l-1.455-5.653a.61.61,0,0,1,.438-.742l4.79-1.233a.61.61,0,0,1,.742.438l1.455,5.653a.61.61,0,0,1-.438.742Z" transform="translate(-401.913 -238.231)" fill="#90c300"/>
  <path id="Path_414" data-name="Path 414" d="M461.975,288.889l-23.955,6.166a.562.562,0,0,1-.681-.354.541.541,0,0,1,.381-.687l24.237-6.239C462.6,288.1,462.433,288.771,461.975,288.889Z" transform="translate(-411.311 -257.155)" fill="#f2f2f2"/>
  <path id="Path_415" data-name="Path 415" d="M465.419,302.267l-23.955,6.166a.562.562,0,0,1-.681-.354.542.542,0,0,1,.381-.687l24.237-6.239c.645.327.476,1,.018,1.114Z" transform="translate(-414.046 -267.779)" fill="#f2f2f2"/>
  <path id="Path_416" data-name="Path 416" d="M468.861,315.636,444.906,321.8a.562.562,0,0,1-.681-.354.542.542,0,0,1,.382-.687l24.237-6.239c.645.327.476,1,.018,1.114Z" transform="translate(-416.779 -278.396)" fill="#f2f2f2"/>
  <path id="Path_417" data-name="Path 417" d="M472.3,329.013l-23.956,6.166a.562.562,0,0,1-.681-.354.542.542,0,0,1,.381-.687l24.237-6.239C472.932,328.226,472.762,328.895,472.3,329.013Z" transform="translate(-419.513 -289.019)" fill="#f2f2f2"/>
  <path id="Path_418" data-name="Path 418" d="M475.746,342.383l-23.955,6.167a.562.562,0,0,1-.681-.354.542.542,0,0,1,.381-.687l24.237-6.239c.645.327.476,1,.018,1.114Z" transform="translate(-422.247 -299.636)" fill="#f2f2f2"/>
  <path id="Path_395" data-name="Path 395" d="M441.773,456.683a.415.415,0,0,1-.262-.018l-.005,0-1.089-.462a.418.418,0,1,1,.327-.769l.706.3.925-2.176a.418.418,0,0,1,.548-.221h0l-.006.014.006-.014a.418.418,0,0,1,.221.548l-1.088,2.558a.418.418,0,0,1-.281.241Z" transform="translate(-413.573 -388.606)" fill="#fff"/>
  <path id="Path_20064" data-name="Path 20064" d="M542.382,310.679H489.268a6.8,6.8,0,0,1-6.794-6.794V241.509a6.8,6.8,0,0,1,6.794-6.794h49.413l10.493,8.364v60.807A6.8,6.8,0,0,1,542.382,310.679Z" transform="translate(-447.175 -215.018)" fill="#e6e6e6"/>
  <path id="Path_20065" data-name="Path 20065" d="M496.812,244.215a4.843,4.843,0,0,0-4.838,4.838v62.377a4.843,4.843,0,0,0,4.838,4.838h53.113a4.843,4.843,0,0,0,4.838-4.838V251.565l-9.222-7.351Z" transform="translate(-454.719 -222.562)" fill="#fff"/>
  <path id="Path_20066" data-name="Path 20066" d="M625.648,323.591H601.466a1.131,1.131,0,1,1,0-2.263h24.182a1.131,1.131,0,1,1,0,2.263Z" transform="translate(-540.772 -283.801)" fill="#90c300"/>
  <path id="Path_20067" data-name="Path 20067" d="M630.314,342.138H601.466a1.131,1.131,0,0,1,0-2.263h28.848a1.131,1.131,0,1,1,0,2.263Z" transform="translate(-540.772 -298.53)" fill="#90c300"/>
  <path id="Path_20068" data-name="Path 20068" d="M625.651,404.443H601.47a1.131,1.131,0,0,0,0,2.262h24.181a1.131,1.131,0,0,0,0-2.262Z" transform="translate(-540.775 -349.805)" fill="#ccc"/>
  <path id="Path_20069" data-name="Path 20069" d="M630.318,422.993H601.47a1.131,1.131,0,1,0,0,2.262h28.848a1.131,1.131,0,1,0,0-2.262Z" transform="translate(-540.775 -364.536)" fill="#ccc"/>
  <path id="Path_20070" data-name="Path 20070" d="M625.648,489.826H601.466a1.131,1.131,0,0,1,0-2.263h24.182a1.131,1.131,0,1,1,0,2.263Z" transform="translate(-540.772 -415.814)" fill="#ccc"/>
  <path id="Path_20071" data-name="Path 20071" d="M630.314,508.373H601.466a1.131,1.131,0,0,1,0-2.263h28.848a1.131,1.131,0,1,1,0,2.263Z" transform="translate(-540.772 -430.543)" fill="#ccc"/>
  <circle id="Ellipse_44-2" data-name="Ellipse 44" cx="3.999" cy="3.999" r="3.999" transform="translate(46.626 36.569)" fill="#90c300"/>
  <path id="Path_395-2" data-name="Path 395" d="M549.755,331.775a.415.415,0,0,1-.25-.083l0,0-.94-.719a.418.418,0,1,1,.508-.663l.609.467,1.438-1.876a.417.417,0,0,1,.585-.077h0l-.009.012.009-.012a.418.418,0,0,1,.077.585l-1.692,2.206a.417.417,0,0,1-.332.163Z" transform="translate(-499.526 -289.682)" fill="#fff"/>
  <path id="Path_20072" data-name="Path 20072" d="M547.487,403.785a4,4,0,0,1-4,4,.89.89,0,0,1-.1,0,4,4,0,1,1,4.1-4Z" transform="translate(-492.453 -346.106)" fill="#ccc"/>
  <circle id="Ellipse_44-3" data-name="Ellipse 44" cx="3.999" cy="3.999" r="3.999" transform="translate(46.626 70.791)" fill="#ccc"/>
  <path id="Path_20073" data-name="Path 20073" d="M765.045,243.957h-8.22a2.263,2.263,0,0,1-2.263-2.263v-6.071a.141.141,0,0,1,.229-.111l10.341,8.192a.141.141,0,0,1-.088.252Z" transform="translate(-663.249 -215.628)" fill="#ccc"/>
  <path id="Path_20074" data-name="Path 20074" d="M560.116,404.005a4,4,0,0,1-4,4,.853.853,0,0,1-.1,0,8.657,8.657,0,0,1,.776-7.938A4,4,0,0,1,560.116,404.005Z" transform="translate(-505.082 -346.327)" fill="#90c300"/>
  <path id="Path_20075" data-name="Path 20075" d="M600.334,405.575a1.134,1.134,0,0,1,1.132-1.132h6.026a8.558,8.558,0,0,1,.743,2.262h-6.769a1.133,1.133,0,0,1-1.132-1.13Z" transform="translate(-540.771 -349.805)" fill="#90c300"/>
  <path id="Path_20076" data-name="Path 20076" d="M608.379,422.993a8.622,8.622,0,0,1-.3,2.262H601.47a1.131,1.131,0,1,1,0-2.262Z" transform="translate(-540.775 -364.536)" fill="#90c300"/>
  <path id="Path_20077" data-name="Path 20077" d="M647.389,449.613a1.235,1.235,0,0,1-1.7.411l-14.412-8.79a1.235,1.235,0,0,1,1.286-2.109l14.412,8.79A1.235,1.235,0,0,1,647.389,449.613Z" transform="translate(-564.876 -377.204)" fill="#3f3d56"/>
  <path id="Path_20078" data-name="Path 20078" d="M571.144,390.1a9.881,9.881,0,1,1-3.29-13.582A9.881,9.881,0,0,1,571.144,390.1Zm-14.763-9a7.411,7.411,0,1,0,10.186-2.468,7.411,7.411,0,0,0-10.186,2.468Z" transform="translate(-503.043 -326.477)" fill="#3f3d56"/>
</svg>
