<svg xmlns="http://www.w3.org/2000/svg" width="94.357" height="73.81" viewBox="0 0 94.357 73.81">
  <g id="cloud_1_" data-name="cloud (1)" transform="translate(-0.6 455.79)">
    <path id="Path_20081" data-name="Path 20081" d="M271.014-455.7a23.993,23.993,0,0,0-8.679,2.751c-2.714,1.588-3.268,2.216-2.862,3.231a1.718,1.718,0,0,0,1.311.9,14.661,14.661,0,0,0,1.939-1.089,17.774,17.774,0,0,1,10.507-3.028,13.947,13.947,0,0,1,4.432.5,19.033,19.033,0,0,1,14.292,16.452,21.229,21.229,0,0,1,.092,3.194c-.148,1.754.018,1.994,1.883,2.751a15.351,15.351,0,0,1,8.752,17.967,15.426,15.426,0,0,1-8.014,9.676c-3.01,1.477-2.807,1.459-12.612,1.57-9.565.129-9.159.074-9.4,1.256a.973.973,0,0,0,.369,1.071l.48.48,8.826-.055,8.808-.074,1.625-.5a17.315,17.315,0,0,0,7.755-4.542,18.015,18.015,0,0,0,4.967-8.531,20.835,20.835,0,0,0,0-8.549,21.592,21.592,0,0,0-2.881-6.278c-1.588-2.234-5.429-5.355-7.238-5.909-.351-.111-.406-.3-.517-2.142a28.784,28.784,0,0,0-.406-3.508A21.842,21.842,0,0,0,271.014-455.7Z" transform="translate(-210.975 0)" fill="#90c300"/>
    <path id="Path_20082" data-name="Path 20082" d="M45.23-412.621a16.62,16.62,0,0,0-2.751,4.21c-.609,1.219-.776,1.422-1.089,1.329a15.9,15.9,0,0,0-12.279,1.44,18.214,18.214,0,0,0-5.632,5.632l-.739,1.348L22-398.772a18.894,18.894,0,0,0-11.633,1.7A15.31,15.31,0,0,0,6.195-394.1a16.453,16.453,0,0,0-3.878,5.3A15.523,15.523,0,0,0,.6-380.953a15.827,15.827,0,0,0,1.366,7.072,19.024,19.024,0,0,0,9.86,9.565c3.213,1.237,3.545,1.274,16.471,1.274H39.949l.388-.425a1.317,1.317,0,0,0,.055-1.81l-.351-.443-12.168-.111c-13.461-.111-12.852-.055-15.714-1.385a15.325,15.325,0,0,1-8.845-14.754,15.379,15.379,0,0,1,11.3-13.793,17.763,17.763,0,0,1,7.515-.074c2.05.5,2.2.425,3.176-1.607a12.606,12.606,0,0,1,7.774-6.906,9.66,9.66,0,0,1,3.878-.5,8.909,8.909,0,0,1,3.878.517c2.4.849,2.659.72,3.508-1.459a18.957,18.957,0,0,1,2.234-4.155c.9-1.274.96-1.717.3-2.4C46.246-412.953,45.821-413.027,45.23-412.621Z" transform="translate(0 -34.991)" fill="#90c300"/>
    <path id="Path_20083" data-name="Path 20083" d="M214.208-292.371c-.351.332-3.25,3.545-6.463,7.109-6.352,7.091-6.37,7.109-5.373,8.088.425.443.535.462,2.844.462h2.419l.037,13.406.055,13.424.517.369c.48.369.591.369,2.234.166a15.83,15.83,0,0,0,5.761-1.9,17.625,17.625,0,0,0,4.838-4.875,15.835,15.835,0,0,0,1.883-5.5c.092-.72.185-4.432.185-8.217v-6.869h2.29c2.16,0,2.345-.037,2.807-.425.7-.609.683-1.422-.055-2.216-.3-.332-3.139-3.471-6.3-6.98-3.158-3.527-5.872-6.444-6.038-6.518C215.242-293.073,214.817-292.944,214.208-292.371Zm6.149,8.457,3.878,4.339-1.643.092a4.722,4.722,0,0,0-1.883.332c-.185.185-.258,2.179-.351,8.956l-.092,8.716-.5,1.514a11.506,11.506,0,0,1-8.66,7.718l-.7.129v-13.2c0-15.6.24-14.163-2.345-14.163-.849,0-1.533-.074-1.5-.166s2.013-2.327,4.395-4.986l4.339-4.819.591.591C216.2-288.531,218.215-286.3,220.357-283.914Z" transform="translate(-164.121 -132.768)" fill="#90c300"/>
  </g>
</svg>
